%TF.GenerationSoftware,KiCad,Pcbnew,(6.0.9-0)*%
%TF.CreationDate,2023-01-03T21:00:16+01:00*%
%TF.ProjectId,MPSIBOARD,4d505349-424f-4415-9244-2e6b69636164,rev?*%
%TF.SameCoordinates,Original*%
%TF.FileFunction,Soldermask,Bot*%
%TF.FilePolarity,Negative*%
%FSLAX46Y46*%
G04 Gerber Fmt 4.6, Leading zero omitted, Abs format (unit mm)*
G04 Created by KiCad (PCBNEW (6.0.9-0)) date 2023-01-03 21:00:16*
%MOMM*%
%LPD*%
G01*
G04 APERTURE LIST*
G04 Aperture macros list*
%AMRoundRect*
0 Rectangle with rounded corners*
0 $1 Rounding radius*
0 $2 $3 $4 $5 $6 $7 $8 $9 X,Y pos of 4 corners*
0 Add a 4 corners polygon primitive as box body*
4,1,4,$2,$3,$4,$5,$6,$7,$8,$9,$2,$3,0*
0 Add four circle primitives for the rounded corners*
1,1,$1+$1,$2,$3*
1,1,$1+$1,$4,$5*
1,1,$1+$1,$6,$7*
1,1,$1+$1,$8,$9*
0 Add four rect primitives between the rounded corners*
20,1,$1+$1,$2,$3,$4,$5,0*
20,1,$1+$1,$4,$5,$6,$7,0*
20,1,$1+$1,$6,$7,$8,$9,0*
20,1,$1+$1,$8,$9,$2,$3,0*%
G04 Aperture macros list end*
%ADD10C,3.200000*%
%ADD11R,1.700000X1.700000*%
%ADD12C,3.250000*%
%ADD13R,1.520000X1.520000*%
%ADD14C,1.520000*%
%ADD15O,1.700000X1.700000*%
%ADD16RoundRect,0.250000X0.600000X0.600000X-0.600000X0.600000X-0.600000X-0.600000X0.600000X-0.600000X0*%
%ADD17C,1.700000*%
%ADD18O,9.000000X2.650000*%
%ADD19C,1.000000*%
%ADD20RoundRect,0.250000X0.600000X-0.600000X0.600000X0.600000X-0.600000X0.600000X-0.600000X-0.600000X0*%
G04 APERTURE END LIST*
D10*
%TO.C,H1*%
X146660000Y-85440000D03*
%TD*%
D11*
%TO.C,TP51*%
X48768000Y-101346000D03*
%TD*%
%TO.C,TP36*%
X54356000Y-89408000D03*
%TD*%
%TO.C,TP33*%
X48768000Y-81280000D03*
%TD*%
%TO.C,TP48*%
X54356000Y-105283000D03*
%TD*%
%TO.C,TP18*%
X135890000Y-120650000D03*
%TD*%
%TO.C,TP1*%
X124460000Y-111506000D03*
%TD*%
%TO.C,TP2*%
X130302000Y-105410000D03*
%TD*%
%TO.C,TP30*%
X100838000Y-119126000D03*
%TD*%
%TO.C,TP42*%
X54356000Y-77343000D03*
%TD*%
%TO.C,TP49*%
X54356000Y-109220000D03*
%TD*%
%TO.C,TP20*%
X128016000Y-123952000D03*
%TD*%
D12*
%TO.C,J6*%
X171290000Y-67000000D03*
X171290000Y-56840000D03*
D13*
X162400000Y-65090000D03*
D14*
X164940000Y-63820000D03*
X162400000Y-62550000D03*
X164940000Y-61280000D03*
X162400000Y-60010000D03*
X164940000Y-58740000D03*
%TD*%
D11*
%TO.C,TP56*%
X48768000Y-125095000D03*
%TD*%
%TO.C,TP16*%
X126238000Y-116332000D03*
%TD*%
%TO.C,TP61*%
X156440000Y-47510000D03*
%TD*%
%TO.C,TP4*%
X124968000Y-105918000D03*
%TD*%
%TO.C,TP19*%
X130556000Y-119380000D03*
%TD*%
%TO.C,TP10*%
X111760000Y-100330000D03*
%TD*%
%TO.C,TP22*%
X122174000Y-128778000D03*
%TD*%
%TO.C,TP50*%
X54356000Y-113157000D03*
%TD*%
%TO.C,TP44*%
X48768000Y-89408000D03*
%TD*%
%TO.C,TP9*%
X48768000Y-129032000D03*
%TD*%
%TO.C,TP34*%
X48768000Y-77343000D03*
%TD*%
%TO.C,JP1*%
X152400000Y-74210000D03*
D15*
X149860000Y-74210000D03*
%TD*%
D11*
%TO.C,TP60*%
X155260000Y-106970000D03*
%TD*%
%TO.C,TP3*%
X128016000Y-99822000D03*
%TD*%
%TO.C,TP21*%
X121666000Y-122682000D03*
%TD*%
%TO.C,TP62*%
X59563000Y-61214000D03*
%TD*%
%TO.C,TP40*%
X48768000Y-73279000D03*
%TD*%
%TO.C,TP45*%
X48768000Y-93472000D03*
%TD*%
D16*
%TO.C,J4*%
X147066000Y-128016000D03*
D17*
X144526000Y-128016000D03*
X147066000Y-125476000D03*
X144526000Y-125476000D03*
X147066000Y-122936000D03*
X144526000Y-122936000D03*
X147066000Y-120396000D03*
X144526000Y-120396000D03*
X147066000Y-117856000D03*
X144526000Y-117856000D03*
X147066000Y-115316000D03*
X144526000Y-115316000D03*
X147066000Y-112776000D03*
X144526000Y-112776000D03*
%TD*%
D11*
%TO.C,TP29*%
X54356000Y-121031000D03*
%TD*%
%TO.C,TP8*%
X120142000Y-87987500D03*
%TD*%
%TO.C,TP52*%
X48768000Y-105283000D03*
%TD*%
%TO.C,TP54*%
X48768000Y-113157000D03*
%TD*%
%TO.C,TP57*%
X54903000Y-40074000D03*
%TD*%
%TO.C,TP31*%
X48768000Y-69342000D03*
%TD*%
%TO.C,TP27*%
X54356000Y-117094000D03*
%TD*%
%TO.C,TP47*%
X54356000Y-101346000D03*
%TD*%
%TO.C,TP35*%
X54356000Y-85344000D03*
%TD*%
D18*
%TO.C,J1*%
X36327000Y-132963000D03*
X36327000Y-129003000D03*
X36327000Y-125043000D03*
X36327000Y-121083000D03*
X36327000Y-117123000D03*
X36327000Y-113163000D03*
X36327000Y-109203000D03*
X36327000Y-105243000D03*
X36327000Y-101283000D03*
X36327000Y-97323000D03*
X36327000Y-93363000D03*
X36327000Y-89403000D03*
X36327000Y-85443000D03*
X36327000Y-81483000D03*
X36327000Y-77523000D03*
X36327000Y-73563000D03*
X36327000Y-69603000D03*
X36327000Y-65643000D03*
X36327000Y-61683000D03*
X36327000Y-57723000D03*
X36327000Y-53763000D03*
X36327000Y-49803000D03*
X36327000Y-45843000D03*
X36327000Y-41883000D03*
X36327000Y-37923000D03*
%TD*%
D11*
%TO.C,TP55*%
X54356000Y-129032000D03*
%TD*%
%TO.C,TP25*%
X107442000Y-130556000D03*
%TD*%
%TO.C,TP39*%
X54356000Y-69342000D03*
%TD*%
%TO.C,TP37*%
X54356000Y-93472000D03*
%TD*%
%TO.C,TP59*%
X60090000Y-130980000D03*
%TD*%
%TO.C,TP26*%
X48768000Y-117094000D03*
%TD*%
%TO.C,TP13*%
X94488000Y-113030000D03*
%TD*%
%TO.C,TP53*%
X48768000Y-109220000D03*
%TD*%
%TO.C,TP11*%
X54356000Y-125095000D03*
%TD*%
%TO.C,TP5*%
X119888000Y-100076000D03*
%TD*%
%TO.C,TP24*%
X113792000Y-129032000D03*
%TD*%
%TO.C,TP43*%
X48768000Y-85344000D03*
%TD*%
%TO.C,TP46*%
X48768000Y-97409000D03*
%TD*%
%TO.C,TP58*%
X58713000Y-55684000D03*
%TD*%
%TO.C,TP17*%
X134750000Y-116950000D03*
%TD*%
%TO.C,TP15*%
X101092000Y-123952000D03*
%TD*%
%TO.C,TP12*%
X94300000Y-109250000D03*
%TD*%
%TO.C,TP32*%
X54356000Y-81280000D03*
%TD*%
D19*
%TO.C,J2*%
X170629000Y-79588000D03*
X170629000Y-83988000D03*
%TD*%
D11*
%TO.C,TP14*%
X94742000Y-117094000D03*
%TD*%
%TO.C,TP41*%
X54356000Y-73279000D03*
%TD*%
%TO.C,TP23*%
X118110000Y-127254000D03*
%TD*%
D20*
%TO.C,J5*%
X108966000Y-48354000D03*
D17*
X108966000Y-45814000D03*
X111506000Y-48354000D03*
X111506000Y-45814000D03*
X114046000Y-48354000D03*
X114046000Y-45814000D03*
X116586000Y-48354000D03*
X116586000Y-45814000D03*
X119126000Y-48354000D03*
X119126000Y-45814000D03*
X121666000Y-48354000D03*
X121666000Y-45814000D03*
X124206000Y-48354000D03*
X124206000Y-45814000D03*
X126746000Y-48354000D03*
X126746000Y-45814000D03*
X129286000Y-48354000D03*
X129286000Y-45814000D03*
X131826000Y-48354000D03*
X131826000Y-45814000D03*
%TD*%
D11*
%TO.C,TP6*%
X119380000Y-105410000D03*
%TD*%
%TO.C,TP38*%
X54356000Y-97409000D03*
%TD*%
%TO.C,TP7*%
X121666000Y-93067500D03*
%TD*%
%TO.C,TP28*%
X48768000Y-121031000D03*
%TD*%
M02*
