M48
; DRILL file {KiCad (6.0.9-0)} date 2023 January 03, Tuesday 21:00:10
; FORMAT={-:-/ absolute / inch / decimal}
; #@! TF.CreationDate,2023-01-03T21:00:10+01:00
; #@! TF.GenerationSoftware,Kicad,Pcbnew,(6.0.9-0)
; #@! TF.FileFunction,Plated,1,2,PTH
FMAT,2
INCH
; #@! TA.AperFunction,Plated,PTH,ViaDrill
T1C0.0157
; #@! TA.AperFunction,Plated,PTH,ViaDrill
T2C0.0197
; #@! TA.AperFunction,Plated,PTH,ViaDrill
T3C0.0236
; #@! TA.AperFunction,Plated,PTH,ComponentDrill
T4C0.0299
; #@! TA.AperFunction,Plated,PTH,ViaDrill
T5C0.0315
; #@! TA.AperFunction,Plated,PTH,ComponentDrill
T6C0.0394
%
G90
G05
T1
X1.746Y-2.28
X1.784Y-2.3065
X1.824Y-2.354
X1.9731Y-2.8385
X1.9773Y-2.9987
X2.058Y-2.532
X2.06Y-2.476
X2.068Y-2.8048
X2.088Y-2.574
X2.134Y-2.492
X2.226Y-4.036
X2.256Y-4.642
X2.266Y-3.5485
X2.2886Y-5.0783
X2.3102Y-2.7477
X2.3138Y-5.1085
X2.314Y-4.912
X2.318Y-4.34
X2.332Y-2.646
X2.362Y-3.422
X2.3635Y-3.528
X2.364Y-3.91
X2.366Y-3.36
X2.374Y-2.676
X2.387Y-3.7085
X2.3938Y-3.604
X2.396Y-2.278
X2.396Y-2.3174
X2.396Y-3.172
X2.398Y-4.29
X2.408Y-2.014
X2.4325Y-2.05
X2.436Y-2.714
X2.4362Y-2.3186
X2.44Y-3.02
X2.44Y-4.452
X2.442Y-2.452
X2.4505Y-2.0885
X2.466Y-2.92
X2.472Y-3.568
X2.474Y-3.824
X2.476Y-4.184
X2.4773Y-2.1173
X2.48Y-1.984
X2.4804Y-2.4605
X2.502Y-2.5
X2.5109Y-2.174
X2.5352Y-2.8048
X2.5403Y-2.2002
X2.5535Y-3.5425
X2.5605Y-2.574
X2.575Y-2.2188
X2.5765Y-3.994
X2.5777Y-2.9056
X2.5805Y-2.3
X2.594Y-1.638
X2.5955Y-3.256
X2.611Y-4.1091
X2.6176Y-2.7477
X2.618Y-3.092
X2.6335Y-4.63
X2.6348Y-4.2492
X2.638Y-1.67
X2.6404Y-4.1514
X2.6658Y-1.6978
X2.671Y-2.722
X2.685Y-4.739
X2.6915Y-4.58
X2.6974Y-4.0719
X2.6985Y-1.7207
X2.6985Y-2.638
X2.708Y-3.07
X2.7211Y-2.514
X2.7211Y-2.776
X2.7211Y-3.14
X2.7238Y-3.8615
X2.726Y-3.318
X2.7315Y-3.6217
X2.74Y-4.11
X2.7476Y-3.4075
X2.7495Y-3.4471
X2.7495Y-3.5413
X2.752Y-4.78
X2.754Y-4.662
X2.767Y-4.485
X2.77Y-4.21
X2.788Y-3.22
X2.79Y-2.09
X2.79Y-2.45
X2.7959Y-2.2076
X2.7985Y-4.1744
X2.8Y-2.6475
X2.8183Y-2.151
X2.82Y-1.978
X2.8244Y-3.989
X2.83Y-4.14
X2.83Y-4.66
X2.8311Y-1.704
X2.8374Y-2.0935
X2.8385Y-3.6217
X2.839Y-2.0542
X2.84Y-3.02
X2.84Y-3.54
X2.84Y-3.69
X2.8419Y-2.1825
X2.8425Y-3.4465
X2.8447Y-2.0153
X2.85Y-2.97
X2.85Y-3.17
X2.85Y-4.58
X2.85Y-4.73
X2.8716Y-1.6916
X2.8752Y-1.794
X2.946Y-2.502
X2.95Y-2.65
X2.96Y-2.59
X2.9606Y-3.4799
X2.9606Y-3.639
X2.962Y-2.358
X2.9632Y-3.1
X2.9632Y-3.1465
X2.9632Y-4.5291
X2.97Y-1.8015
X2.98Y-1.6463
X2.98Y-1.6857
X2.9885Y-1.7668
X3.0446Y-2.4354
X3.0446Y-2.5746
X3.0742Y-1.6492
X3.0787Y-2.0939
X3.0839Y-2.6085
X3.0862Y-3.1437
X3.0874Y-2.151
X3.1039Y-3.55
X3.11Y-2.7
X3.1152Y-4.6665
X3.12Y-3.07
X3.12Y-3.22
X3.12Y-3.74
X3.12Y-4.21
X3.12Y-4.26
X3.13Y-3.59
X3.13Y-4.11
X3.13Y-4.63
X3.13Y-4.78
X3.1972Y-1.9976
X3.1976Y-1.6031
X3.2069Y-2.0358
X3.2237Y-1.6366
X3.2278Y-1.7978
X3.2319Y-2.0687
X3.2331Y-2.1992
X3.2349Y-1.701
X3.2402Y-2.2413
X3.2444Y-4.1559
X3.2444Y-4.528
X3.2465Y-3.9913
X3.2476Y-3.1024
X3.25Y-2.58
X3.2509Y-1.665
X3.2551Y-1.8616
X3.2563Y-3.6675
X3.2568Y-4.6668
X3.2568Y-1.7712
X3.261Y-5.009
X3.2613Y-2.1718
X3.2665Y-3.4917
X3.2764Y-3.5921
X3.2772Y-1.7203
X3.2778Y-4.0234
X3.2818Y-2.0762
X3.2818Y-3.1263
X3.286Y-5.08
X3.3015Y-4.44
X3.3079Y-1.8616
X3.33Y-4.61
X3.36Y-3.17
X3.36Y-4.92
X3.3634Y-1.8516
X3.3781Y-2.61
X3.38Y-2.97
X3.39Y-4.83
X3.4185Y-4.32
X3.45Y-5.13
X3.4769Y-2.3
X3.48Y-4.74
X3.4892Y-4.8585
X3.5061Y-2.6167
X3.5071Y-1.8197
X3.5429Y-2.4067
X3.5433Y-2.5594
X3.5452Y-1.8098
X3.5548Y-4.5571
X3.5563Y-1.7673
X3.565Y-4.6575
X3.5715Y-4.8015
X3.5724Y-1.7283
X3.6079Y-3.0799
X3.608Y-1.7116
X3.6122Y-4.8585
X3.6294Y-1.6785
X3.6322Y-4.2028
X3.6365Y-3.0476
X3.6455Y-1.6426
X3.6541Y-3.8615
X3.6686Y-3.025
X3.6754Y-3.5217
X3.6884Y-2.991
X3.6931Y-2.2354
X3.7079Y-2.1969
X3.7108Y-2.561
X3.7187Y-2.1541
X3.7213Y-2.9693
X3.7283Y-3.4874
X3.7323Y-2.528
X3.7466Y-2.4887
X3.7498Y-2.9315
X3.7501Y-2.8794
X3.7594Y-2.15
X3.7628Y-2.9706
X3.7634Y-4.5352
X3.7683Y-4.1403
X3.778Y-2.8157
X3.7882Y-2.111
X3.7995Y-2.5013
X3.8029Y-4.61
X3.8093Y-2.7872
X3.8266Y-2.8443
X3.8316Y-4.4584
X3.8563Y-2.7264
X3.8618Y-4.5004
X3.8669Y-4.6945
X3.8728Y-2.8906
X3.8929Y-3.4681
X3.9193Y-3.6378
X3.9228Y-2.6999
X3.9514Y-3.4291
X3.953Y-1.779
X3.9594Y-3.6535
X3.9673Y-2.6713
X4.0017Y-2.6428
X4.0612Y-3.9669
X4.0777Y-4.052
X4.0846Y-3.576
X4.0898Y-3.1632
X4.1128Y-2.8715
X4.13Y-4.41
X4.1358Y-2.7569
X4.1386Y-5.2551
X4.15Y-4.36
X4.15Y-4.7
X4.19Y-3.6742
X4.22Y-4.77
X4.24Y-4.67
X4.2437Y-4.4449
X4.2461Y-4.5409
X4.2512Y-4.4839
X4.2776Y-3.0183
X4.2917Y-3.379
X4.3Y-4.5008
X4.3067Y-4.4146
X4.3161Y-4.3764
X4.3169Y-3.0335
X4.3181Y-2.9709
X4.331Y-4.531
X4.3344Y-2.3049
X4.3406Y-4.2313
X4.3441Y-3.1543
X4.35Y-4.875
X4.363Y-4.4693
X4.3701Y-2.9799
X4.3786Y-2.8429
X4.38Y-4.72
X4.4002Y-2.7321
X4.4216Y-4.2617
X4.4331Y-2.3161
X4.4358Y-3.379
X4.4398Y-3.2933
X4.4576Y-2.6999
X4.4673Y-4.5279
X4.47Y-3.83
X4.4815Y-3.5663
X4.5075Y-3.8016
X4.5087Y-2.9102
X4.5102Y-3.0161
X4.5118Y-2.8417
X4.513Y-2.728
X4.5197Y-3.0563
X4.5268Y-2.9805
X4.5372Y-2.8831
X4.5535Y-3.078
X4.5588Y-2.7205
X4.5634Y-3.2071
X4.564Y-3.479
X4.5654Y-2.7811
X4.574Y-4.4709
X4.5759Y-2.8764
X4.586Y-4.697
X4.5886Y-3.5378
X4.5899Y-3.1228
X4.5902Y-2.1138
X4.5912Y-2.8401
X4.6197Y-2.7941
X4.621Y-3.5135
X4.6213Y-2.7437
X4.6277Y-3.2194
X4.6329Y-3.0602
X4.6407Y-3.379
X4.6453Y-3.463
X4.6709Y-3.2157
X4.6722Y-3.062
X4.6909Y-3.835
X4.7199Y-3.1841
X4.7252Y-3.1122
X4.7386Y-3.5969
X4.7539Y-3.407
X4.7724Y-2.7524
X4.7843Y-3.1551
X4.7937Y-1.9657
X4.8002Y-2.7925
X4.8154Y-3.4319
X4.8173Y-2.6096
X4.8366Y-2.2584
X4.8433Y-2.5801
X4.8456Y-3.1342
X4.8622Y-3.4484
X4.8647Y-3.3559
X4.868Y-4.668
X4.875Y-2.0521
X4.8768Y-2.8469
X4.8846Y-3.4161
X4.8882Y-2.7524
X4.9024Y-2.5937
X4.9075Y-2.7906
X4.9085Y-3.3468
X4.936Y-2.8969
X4.9416Y-2.5911
X4.9516Y-3.0736
X4.9551Y-2.7524
X4.978Y-2.576
X4.9801Y-2.9591
X4.9826Y-2.7805
X4.9882Y-2.8567
X4.9906Y-2.2882
X5.0055Y-2.1095
X5.035Y-2.611
X5.05Y-2.075
X5.0512Y-3.2453
X5.0524Y-3.4228
X5.0591Y-3.5195
X5.0717Y-3.3308
X5.0768Y-1.9661
X5.0917Y-3.665
X5.1Y-2.1862
X5.102Y-3.2294
X5.1083Y-3.3165
X5.1197Y-3.0232
X5.133Y-3.2008
X5.1366Y-2.898
X5.1573Y-2.7315
X5.159Y-3.0317
X5.163Y-3.2472
X5.1705Y-2.9626
X5.1732Y-2.7675
X5.1779Y-3.0879
X5.1901Y-3.2155
X5.1952Y-3.0514
X5.2Y-3.4307
X5.2091Y-4.5854
X5.2106Y-3.2677
X5.2144Y-3.1819
X5.2146Y-2.7992
X5.2169Y-3.1248
X5.2372Y-3.2967
X5.2402Y-3.8031
X5.2591Y-2.7984
X5.2598Y-2.2584
X5.2687Y-3.7703
X5.2815Y-4.126
X5.3051Y-3.1644
X5.3179Y-3.2315
X5.3217Y-3.0864
X5.326Y-2.1675
X5.3419Y-3.1503
X5.3545Y-2.7047
X5.3553Y-3.93
X5.3563Y-3.0514
X5.3772Y-2.7551
X5.3799Y-2.0295
X5.3838Y-3.8673
X5.3854Y-3.0001
X5.4084Y-3.544
X5.42Y-3.486
X5.4213Y-1.9951
X5.4309Y-2.2518
X5.4323Y-4.8996
X5.448Y-2.9303
X5.4511Y-1.857
X5.4591Y-2.8236
X5.4608Y-4.032
X5.4691Y-4.0705
X5.4809Y-2.2018
X5.4836Y-2.9755
X5.4886Y-1.7574
X5.52Y-1.8898
X5.5748Y-4.1929
X5.5809Y-4.4433
X5.5984Y-4.9157
X5.6224Y-5.2575
X5.6327Y-4.3933
X5.7358Y-4.4961
X6.1402Y-3.0425
X6.1854Y-2.8
X6.1959Y-3.8273
X6.1984Y-3.1189
X6.2028Y-2.8927
X6.2945Y-3.8146
X6.2996Y-3.772
X6.3031Y-3.241
X6.3323Y-3.2118
X6.3413Y-4.0283
X6.3461Y-3.863
X6.3508Y-4.0807
T2
X6.1575Y-3.9461
X6.3327Y-3.9118
T3
X2.0842Y-2.0914
T4
X6.3937Y-2.3626
X6.3937Y-2.4626
X6.3937Y-2.5626
X6.4937Y-2.3126
X6.4937Y-2.4126
X6.4937Y-2.5126
T5
X1.6993Y-2.1167
X1.7227Y-1.9607
T6
X1.92Y-2.73
X1.92Y-2.885
X1.92Y-3.045
X1.92Y-3.2
X1.92Y-3.36
X1.92Y-3.52
X1.92Y-3.68
X1.92Y-3.835
X1.92Y-3.99
X1.92Y-4.145
X1.92Y-4.3
X1.92Y-4.455
X1.92Y-4.61
X1.92Y-4.765
X1.92Y-4.925
X1.92Y-5.08
X2.14Y-2.73
X2.14Y-2.885
X2.14Y-3.045
X2.14Y-3.2
X2.14Y-3.36
X2.14Y-3.52
X2.14Y-3.68
X2.14Y-3.835
X2.14Y-3.99
X2.14Y-4.145
X2.14Y-4.3
X2.14Y-4.455
X2.14Y-4.61
X2.14Y-4.765
X2.14Y-4.925
X2.14Y-5.08
X2.1615Y-1.5777
X2.3115Y-2.1923
X2.345Y-2.41
X2.3657Y-5.1567
X3.7126Y-4.3012
X3.72Y-4.45
X3.73Y-4.61
X3.97Y-4.69
X3.98Y-4.88
X4.23Y-5.14
X4.29Y-1.8037
X4.29Y-1.9037
X4.39Y-1.8037
X4.39Y-1.9037
X4.4Y-3.95
X4.48Y-5.08
X4.49Y-1.8037
X4.49Y-1.9037
X4.59Y-1.8037
X4.59Y-1.9037
X4.65Y-5.01
X4.69Y-1.8037
X4.69Y-1.9037
X4.7Y-4.15
X4.72Y-3.94
X4.73Y-3.4641
X4.79Y-1.8037
X4.79Y-1.9037
X4.79Y-3.6641
X4.79Y-4.83
X4.81Y-5.07
X4.89Y-1.8037
X4.89Y-1.9037
X4.9Y-4.39
X4.92Y-4.17
X4.97Y-4.58
X4.99Y-1.8037
X4.99Y-1.9037
X5.04Y-3.93
X5.04Y-4.88
X5.09Y-1.8037
X5.09Y-1.9037
X5.13Y-4.15
X5.14Y-4.7
X5.19Y-1.8037
X5.19Y-1.9037
X5.3051Y-4.6043
X5.35Y-4.75
X5.69Y-4.44
X5.69Y-4.54
X5.69Y-4.64
X5.69Y-4.74
X5.69Y-4.84
X5.69Y-4.94
X5.69Y-5.04
X5.79Y-4.44
X5.79Y-4.54
X5.79Y-4.64
X5.79Y-4.74
X5.79Y-4.84
X5.79Y-4.94
X5.79Y-5.04
X5.9Y-2.9217
X6.0Y-2.9217
X6.1126Y-4.2114
X6.1591Y-1.8705
T0
M30
